<?xml version="1.0" encoding="UTF-8"?>
<svg fill="#171f28" width="100pt" height="100pt" version="1.1" viewBox="0 0 100 100" xmlns="http://www.w3.org/2000/svg">
 <g>
  <path d="m37.301 61.398v3.8008h-1.5c-1.6992 0-3 1.3984-3 3 0 1.6016 1.3984 3 3 3h28.5c1.6992 0 3-1.3984 3-3 0-1.6016-1.3984-3-3-3h-1.5v-3.8008c0-3.1992-1.3984-6.1992-3.8984-8.3008l-4-3.3008 4-3.3008c2.5-2 3.8984-5 3.8984-8.3008v-3.8008h1.5c1.6992 0 3-1.3984 3-3 0-1.6016-1.3984-3-3-3l-28.5 0.003907c-1.6992 0-3 1.3984-3 3 0 1.6016 1.3984 3 3 3h1.5v3.8008c0 3.1992 1.3984 6.1992 3.8984 8.3008l4 3.3008-4 3.3008c-2.5 2.0977-3.8984 5.0977-3.8984 8.2969zm6-23v-3.8008h13.301v3.8008c0 1.3984-0.60156 2.6992-1.6992 3.6016l-4.9023 4-5-4.1016c-1.1016-0.79688-1.6992-2.0977-1.6992-3.5zm1.6992 19.5 5-4.1016 5 4.1016c1.1016 0.89844 1.6992 2.1992 1.6992 3.6016v3.8008h-13.398v-3.8008c0-1.5 0.59766-2.8008 1.6992-3.6016z"/>
  <path d="m82.699 71.102c-4.8984 6.7969-11.898 11.898-19.598 14.297-7.6992 2.5-16.102 2.1992-23.5-0.30078-7.3984-2.6016-13.898-7.5-18.102-13.898-4.3984-6.3008-6.3008-13.898-6-21.301v-0.10156-0.5c-0.19922-3.6016-3.1992-6.3984-6.8008-6.1992-3.6016 0.19922-6.3984 3.1992-6.1992 6.8008 0.5 10.102 4 20.102 10.398 27.703 6.1992 7.8008 14.898 13.301 24.301 15.699 9.3984 2.3008 19.398 1.6992 28.102-2 8.8008-3.6016 16.102-10.102 20.801-18 0.5-0.89844 0.30078-2.1016-0.60156-2.6992-0.89844-0.60156-2.1992-0.40234-2.8008 0.5z"/>
  <path d="m87.102 22.199c-6.2031-7.6992-14.902-13.199-24.301-15.598-9.3984-2.3008-19.301-1.6992-28 2-8.6992 3.6016-16 10.102-20.602 17.898-0.39844 0.80078-0.19922 1.8008 0.5 2.3008 0.80078 0.5 1.8008 0.39844 2.3984-0.39844 4.8984-6.8008 12-11.898 19.801-14.301 7.8008-2.5 16.199-2.1992 23.699 0.39844 7.3984 2.6992 13.898 7.6016 18.102 14.102 4.3008 6.3008 6.1992 14 5.8984 21.398v0.60156c0.19922 3.6016 3.1992 6.3984 6.8008 6.1992 3.6016-0.19922 6.3984-3.1992 6.1992-6.8008-0.59766-10.199-4.1992-20.102-10.496-27.801z"/>
 </g>
</svg>
